<mxfile host="app.diagrams.net" modified="2022-05-30T09:26:54.958Z" agent="5.0 (X11; Linux x86_64) AppleWebKit/537.36 (KHTML, like Gecko) Chrome/98.0.4758.80 Safari/537.36" etag="zgk_L4S0U9XE2MVz0Igj" version="16.0.3" type="github">
  <diagram id="DrSU8RwG7iBjyivC3MW1" name="Page-1">
    <mxGraphModel dx="1020" dy="634" grid="1" gridSize="10" guides="1" tooltips="1" connect="1" arrows="1" fold="1" page="1" pageScale="1" pageWidth="827" pageHeight="1169" math="0" shadow="0">
      <root>
        <mxCell id="0" />
        <mxCell id="1" parent="0" />
        <mxCell id="PKxQbHvX63fxbK549Yqt-3" value="" style="edgeStyle=orthogonalEdgeStyle;rounded=0;orthogonalLoop=1;jettySize=auto;html=1;" edge="1" parent="1" source="PKxQbHvX63fxbK549Yqt-1" target="PKxQbHvX63fxbK549Yqt-2">
          <mxGeometry relative="1" as="geometry" />
        </mxCell>
        <mxCell id="PKxQbHvX63fxbK549Yqt-1" value="&lt;div style=&quot;background-color: rgb(255 , 255 , 255) ; font-family: &amp;#34;droid sans mono&amp;#34; , &amp;#34;monospace&amp;#34; , monospace , &amp;#34;droid sans fallback&amp;#34; ; font-size: 14px ; line-height: 19px&quot;&gt;&lt;span style=&quot;color: #795e26&quot;&gt;addImageBundle&lt;/span&gt;(&lt;span style=&quot;color: #0000ff&quot;&gt;const&lt;/span&gt; &lt;span style=&quot;color: #267f99&quot;&gt;std&lt;/span&gt;::&lt;span style=&quot;color: #267f99&quot;&gt;vector&lt;/span&gt;&amp;lt;&lt;span style=&quot;color: #267f99&quot;&gt;cv&lt;/span&gt;::&lt;span style=&quot;color: #267f99&quot;&gt;Mat&lt;/span&gt;&amp;gt;&lt;span style=&quot;color: #0000ff&quot;&gt;&amp;amp;&lt;/span&gt; &lt;span style=&quot;color: #001080&quot;&gt;imgs&lt;/span&gt;, &lt;span style=&quot;color: #0000ff&quot;&gt;const&lt;/span&gt; &lt;span style=&quot;color: #267f99&quot;&gt;uint64_t&lt;/span&gt; &lt;span style=&quot;color: #001080&quot;&gt;timestamp&lt;/span&gt;)&lt;/div&gt;&lt;div style=&quot;background-color: rgb(255 , 255 , 255) ; font-family: &amp;#34;droid sans mono&amp;#34; , &amp;#34;monospace&amp;#34; , monospace , &amp;#34;droid sans fallback&amp;#34; ; font-size: 14px ; line-height: 19px&quot;&gt;输入初始的图像，进行处理&lt;/div&gt;" style="text;html=1;align=center;verticalAlign=middle;resizable=0;points=[];autosize=1;strokeColor=none;fillColor=none;" vertex="1" parent="1">
          <mxGeometry x="20" y="110" width="640" height="40" as="geometry" />
        </mxCell>
        <mxCell id="PKxQbHvX63fxbK549Yqt-5" value="" style="edgeStyle=orthogonalEdgeStyle;rounded=0;orthogonalLoop=1;jettySize=auto;html=1;" edge="1" parent="1" source="PKxQbHvX63fxbK549Yqt-2" target="PKxQbHvX63fxbK549Yqt-4">
          <mxGeometry relative="1" as="geometry" />
        </mxCell>
        <mxCell id="PKxQbHvX63fxbK549Yqt-2" value="每一个图像都构造frame 类，得到frames容器" style="whiteSpace=wrap;html=1;" vertex="1" parent="1">
          <mxGeometry x="280" y="200" width="120" height="60" as="geometry" />
        </mxCell>
        <mxCell id="PKxQbHvX63fxbK549Yqt-8" value="" style="edgeStyle=orthogonalEdgeStyle;rounded=0;orthogonalLoop=1;jettySize=auto;html=1;" edge="1" parent="1" source="PKxQbHvX63fxbK549Yqt-4" target="PKxQbHvX63fxbK549Yqt-7">
          <mxGeometry relative="1" as="geometry" />
        </mxCell>
        <mxCell id="PKxQbHvX63fxbK549Yqt-4" value="构造帧联合结构&lt;br&gt;&lt;div style=&quot;background-color: rgb(255 , 255 , 255) ; font-family: &amp;#34;droid sans mono&amp;#34; , &amp;#34;monospace&amp;#34; , monospace , &amp;#34;droid sans fallback&amp;#34; ; font-size: 14px ; line-height: 19px&quot;&gt;&lt;span style=&quot;color: #001080&quot;&gt;frame_bundle&lt;/span&gt;&lt;/div&gt;" style="whiteSpace=wrap;html=1;" vertex="1" parent="1">
          <mxGeometry x="280" y="340" width="120" height="60" as="geometry" />
        </mxCell>
        <mxCell id="PKxQbHvX63fxbK549Yqt-6" value="创建了图像金字塔" style="text;html=1;align=center;verticalAlign=middle;resizable=0;points=[];autosize=1;strokeColor=none;fillColor=none;" vertex="1" parent="1">
          <mxGeometry x="400" y="220" width="110" height="20" as="geometry" />
        </mxCell>
        <mxCell id="PKxQbHvX63fxbK549Yqt-10" value="" style="edgeStyle=orthogonalEdgeStyle;rounded=0;orthogonalLoop=1;jettySize=auto;html=1;" edge="1" parent="1" source="PKxQbHvX63fxbK549Yqt-7" target="PKxQbHvX63fxbK549Yqt-9">
          <mxGeometry relative="1" as="geometry" />
        </mxCell>
        <mxCell id="PKxQbHvX63fxbK549Yqt-7" value="处理图像帧&lt;span style=&quot;color: rgb(0 , 16 , 128) ; background-color: rgb(255 , 255 , 255) ; font-family: &amp;#34;droid sans mono&amp;#34; , &amp;#34;monospace&amp;#34; , monospace , &amp;#34;droid sans fallback&amp;#34; ; font-size: 14px&quot;&gt;&lt;br&gt;&lt;/span&gt;&lt;div style=&quot;background-color: rgb(255 , 255 , 255) ; font-family: &amp;#34;droid sans mono&amp;#34; , &amp;#34;monospace&amp;#34; , monospace , &amp;#34;droid sans fallback&amp;#34; ; font-size: 14px ; line-height: 19px&quot;&gt;&lt;span style=&quot;color: #795e26&quot;&gt;addFrameBundle&lt;/span&gt;&lt;/div&gt;" style="whiteSpace=wrap;html=1;" vertex="1" parent="1">
          <mxGeometry x="280" y="480" width="120" height="60" as="geometry" />
        </mxCell>
        <mxCell id="PKxQbHvX63fxbK549Yqt-9" value="" style="whiteSpace=wrap;html=1;" vertex="1" parent="1">
          <mxGeometry x="280" y="620" width="120" height="60" as="geometry" />
        </mxCell>
      </root>
    </mxGraphModel>
  </diagram>
</mxfile>
